# xmcd
#
# Track frame offsets: 
#        150
#        19267
#        40616
#        60116
#        74266
#        95510
#        115186
#        136420
#        160847
#        184519
#        205513
#        226418
#        237159
#        255774
#        272409
#        293614
#
# Disc length: 4180 seconds
#
# Revision: 0
# Processed by: cddbd v1.5.2PL0 Copyright (c) Steve Scherf et al.
# Submitted via: ExactAudioCopyFreeDBPlugin 1.0
#
DISCID=c4105210
DTITLE=群星 - 试机14号
DYEAR=2010
DGENRE=Acid
TTITLE0=我是否也在你心中
TTITLE1=落花的事
TTITLE2=你走以后
TTITLE3=独上西楼
TTITLE4=有多少爱可以重来
TTITLE5=雅鲁藏布
TTITLE6=一把小雨伞
TTITLE7=君在前哨
TTITLE8=雁南飞
TTITLE9=短暂的浪漫
TTITLE10=唱首情歌献给草原
TTITLE11=兰花草
TTITLE12=曾经是我最爱的人
TTITLE13=微风往事
TTITLE14=灰姑娘
TTITLE15=张三的歌
EXTD=
EXTT0=
EXTT1=
EXTT2=
EXTT3=
EXTT4=
EXTT5=
EXTT6=
EXTT7=
EXTT8=
EXTT9=
EXTT10=
EXTT11=
EXTT12=
EXTT13=
EXTT14=
EXTT15=
PLAYORDER=
